<svg width="80" height="80" viewBox="0 0 80 80" fill="none" xmlns="http://www.w3.org/2000/svg">
<path d="M15.0645 73.1834L12.918 73.1999L38.1928 21.2931L39.9176 22.1463L15.0645 73.1834Z" fill="url(#paint0_linear)"/>
<path d="M64.5074 73.1834L66.2749 73.1999L41.3791 21.2931L39.6543 22.1463L64.5074 73.1834Z" fill="url(#paint1_linear)"/>
<path d="M40.8607 16.3485H38.9395V73.1999H40.8607V16.3485Z" fill="url(#paint2_linear)"/>
<path d="M15.0645 72.7467L12.918 72.7633L38.1928 21.2556L39.9176 22.1018L15.0645 72.7467Z" fill="#BDBDBD"/>
<path d="M64.5074 72.7467L66.2749 72.7633L41.3791 21.2556L39.6543 22.1018L64.5074 72.7467Z" fill="#BDBDBD"/>
<path d="M40.8607 16.3485H38.9395V72.7633H40.8607V16.3485Z" fill="#BDBDBD"/>
<path d="M39.6815 11.7637C39.033 11.7637 38.4111 11.5061 37.9525 11.0475C37.4939 10.589 37.2363 9.96703 37.2363 9.31852V8.44522C37.2363 7.79671 37.4939 7.17476 37.9525 6.71619C38.4111 6.25762 39.033 6 39.6815 6C40.3301 6 40.952 6.25762 41.4106 6.71619C41.8692 7.17476 42.1268 7.79671 42.1268 8.44522V9.31852C42.1268 9.96703 41.8692 10.589 41.4106 11.0475C40.952 11.5061 40.3301 11.7637 39.6815 11.7637V11.7637ZM39.6815 6.61131C39.1952 6.61131 38.7287 6.80452 38.3848 7.14845C38.0408 7.49237 37.8476 7.95884 37.8476 8.44522V9.31852C37.8476 9.8049 38.0408 10.2714 38.3848 10.6153C38.7287 10.9592 39.1952 11.1524 39.6815 11.1524C40.1679 11.1524 40.6344 10.9592 40.9783 10.6153C41.3223 10.2714 41.5155 9.8049 41.5155 9.31852V8.44522C41.5155 7.95884 41.3223 7.49237 40.9783 7.14845C40.6344 6.80452 40.1679 6.61131 39.6815 6.61131V6.61131Z" fill="#BDBDBD"/>
<path d="M77.3652 8.05225H2V43.246H77.3652V8.05225Z" fill="url(#paint3_linear)"/>
<path d="M76.6228 8.70721H2.74219V42.067H76.6228V8.70721Z" fill="#BDBDBD"/>
<path d="M75.1388 9.75516H4.05273V40.1458H75.1388V9.75516Z" fill="white"/>
<path d="M58.7803 10.8468H58.7148V32.6948H58.7803C60.215 32.6948 61.6357 32.4123 62.9611 31.8632C64.2866 31.3142 65.4909 30.5095 66.5054 29.495C67.5199 28.4805 68.3246 27.2762 68.8736 25.9507C69.4227 24.6252 69.7052 23.2046 69.7052 21.7699C69.7052 20.3353 69.4227 18.9146 68.8736 17.5892C68.3246 16.2637 67.5199 15.0593 66.5054 14.0449C65.4909 13.0304 64.2866 12.2257 62.9611 11.6766C61.6357 11.1276 60.215 10.845 58.7803 10.845V10.8468Z" fill="#02275D"/>
<path d="M58.7151 10.8485C55.8408 10.8657 53.089 12.0152 51.0565 14.0476C49.0241 16.0801 47.8746 18.8319 47.8574 21.7062H58.7151V10.8485Z" fill="#033784"/>
<path d="M47.2676 21.8223C47.2676 21.845 47.2676 21.8677 47.2676 21.8913C47.2678 24.9026 48.4593 27.7914 50.5821 29.9272C52.7049 32.0629 55.5865 33.272 58.5977 33.2904V21.8223H47.2676Z" fill="url(#paint4_linear)"/>
<path d="M47.5938 21.969C47.5938 21.9909 47.5938 22.0127 47.5938 22.0345C47.5937 24.9203 48.7355 27.6889 50.7698 29.7356C52.8041 31.7824 55.5657 32.941 58.4514 32.9586V21.969H47.5938Z" fill="#D1E7FF"/>
<path d="M27.1848 11.8947H6.10352V13.3863H27.1848V11.8947Z" fill="#BDBDBD"/>
<path d="M39.8126 14.3356H6.10352V15.8272H39.8126V14.3356Z" fill="#E0E0E0"/>
<path d="M39.8126 16.7764H6.10352V18.268H39.8126V16.7764Z" fill="#E0E0E0"/>
<path d="M39.8126 19.2182H6.10352V20.7098H39.8126V19.2182Z" fill="#E0E0E0"/>
<path d="M65.0513 36.085H62.6934V38.4429H65.0513V36.085Z" fill="#02275D"/>
<path d="M73.6987 36.6089H66.0137V38.0062H73.6987V36.6089Z" fill="#E0E0E0"/>
<path d="M51.6899 36.085H49.332V38.4429H51.6899V36.085Z" fill="#033784"/>
<path d="M60.3373 36.6089H52.6523V38.0062H60.3373V36.6089Z" fill="#E0E0E0"/>
<path d="M38.7661 36.085H36.4082V38.4429H38.7661V36.085Z" fill="#D1E7FF"/>
<path d="M47.4115 36.6089H39.7266V38.0062H47.4115V36.6089Z" fill="#E0E0E0"/>
<path d="M20.4756 23.9724H19.7324V35.823H20.4756V23.9724Z" fill="#E0E0E0"/>
<path d="M22.3858 23.9724H21.6426V35.823H22.3858V23.9724Z" fill="#E0E0E0"/>
<path d="M24.2959 23.9724H23.5527V35.823H24.2959V23.9724Z" fill="#E0E0E0"/>
<path d="M26.2061 23.9724H25.4629V35.823H26.2061V23.9724Z" fill="#E0E0E0"/>
<path d="M20.0927 32.4451C20.8547 32.4451 21.4725 31.8273 21.4725 31.0653C21.4725 30.3032 20.8547 29.6855 20.0927 29.6855C19.3307 29.6855 18.7129 30.3032 18.7129 31.0653C18.7129 31.8273 19.3307 32.4451 20.0927 32.4451Z" fill="url(#paint5_linear)"/>
<path d="M22.0029 29.0488C22.7649 29.0488 23.3827 28.4311 23.3827 27.669C23.3827 26.907 22.7649 26.2892 22.0029 26.2892C21.2408 26.2892 20.623 26.907 20.623 27.669C20.623 28.4311 21.2408 29.0488 22.0029 29.0488Z" fill="url(#paint6_linear)"/>
<path d="M23.915 30.7474C24.677 30.7474 25.2948 30.1296 25.2948 29.3676C25.2948 28.6055 24.677 27.9878 23.915 27.9878C23.1529 27.9878 22.5352 28.6055 22.5352 29.3676C22.5352 30.1296 23.1529 30.7474 23.915 30.7474Z" fill="url(#paint7_linear)"/>
<path d="M25.8251 26.0072C26.5872 26.0072 27.2049 25.3894 27.2049 24.6273C27.2049 23.8653 26.5872 23.2475 25.8251 23.2475C25.0631 23.2475 24.4453 23.8653 24.4453 24.6273C24.4453 25.3894 25.0631 26.0072 25.8251 26.0072Z" fill="url(#paint8_linear)"/>
<path d="M20.0953 32.2329C20.7402 32.2329 21.2629 31.7101 21.2629 31.0653C21.2629 30.4204 20.7402 29.8977 20.0953 29.8977C19.4505 29.8977 18.9277 30.4204 18.9277 31.0653C18.9277 31.7101 19.4505 32.2329 20.0953 32.2329Z" fill="#02275D"/>
<path d="M22.0035 28.8366C22.6484 28.8366 23.1711 28.3139 23.1711 27.669C23.1711 27.0242 22.6484 26.5014 22.0035 26.5014C21.3587 26.5014 20.8359 27.0242 20.8359 27.669C20.8359 28.3139 21.3587 28.8366 22.0035 28.8366Z" fill="#D1E7FF"/>
<path d="M23.9137 30.5352C24.5585 30.5352 25.0813 30.0124 25.0813 29.3676C25.0813 28.7227 24.5585 28.2 23.9137 28.2C23.2688 28.2 22.7461 28.7227 22.7461 29.3676C22.7461 30.0124 23.2688 30.5352 23.9137 30.5352Z" fill="#D1E7FF"/>
<path d="M25.8238 25.7949C26.4687 25.7949 26.9914 25.2722 26.9914 24.6273C26.9914 23.9825 26.4687 23.4597 25.8238 23.4597C25.179 23.4597 24.6562 23.9825 24.6562 24.6273C24.6562 25.2722 25.179 25.7949 25.8238 25.7949Z" fill="#02275D"/>
<defs>
<linearGradient id="paint0_linear" x1="26.4182" y1="73.1999" x2="26.4182" y2="21.2931" gradientUnits="userSpaceOnUse">
<stop stop-color="#808080" stop-opacity="0.25"/>
<stop offset="0.54" stop-color="#808080" stop-opacity="0.12"/>
<stop offset="1" stop-color="#808080" stop-opacity="0.1"/>
</linearGradient>
<linearGradient id="paint1_linear" x1="15575.2" y1="21.2931" x2="15575.2" y2="9111.22" gradientUnits="userSpaceOnUse">
<stop stop-color="#808080" stop-opacity="0.25"/>
<stop offset="0.54" stop-color="#808080" stop-opacity="0.12"/>
<stop offset="1" stop-color="#808080" stop-opacity="0.1"/>
</linearGradient>
<linearGradient id="paint2_linear" x1="872.76" y1="16.3485" x2="872.76" y2="6753.24" gradientUnits="userSpaceOnUse">
<stop stop-color="#808080" stop-opacity="0.25"/>
<stop offset="0.54" stop-color="#808080" stop-opacity="0.12"/>
<stop offset="1" stop-color="#808080" stop-opacity="0.1"/>
</linearGradient>
<linearGradient id="paint3_linear" x1="32522.1" y1="15018.2" x2="32522.1" y2="835.105" gradientUnits="userSpaceOnUse">
<stop stop-color="#808080" stop-opacity="0.25"/>
<stop offset="0.54" stop-color="#808080" stop-opacity="0.12"/>
<stop offset="1" stop-color="#808080" stop-opacity="0.1"/>
</linearGradient>
<linearGradient id="paint4_linear" x1="8564" y1="4353.89" x2="8564" y2="2847.9" gradientUnits="userSpaceOnUse">
<stop stop-color="#808080" stop-opacity="0.25"/>
<stop offset="0.54" stop-color="#808080" stop-opacity="0.12"/>
<stop offset="1" stop-color="#808080" stop-opacity="0.1"/>
</linearGradient>
<linearGradient id="paint5_linear" x1="941.013" y1="-1097.26" x2="853.809" y2="-1097.26" gradientUnits="userSpaceOnUse">
<stop stop-color="#808080" stop-opacity="0.25"/>
<stop offset="0.54" stop-color="#808080" stop-opacity="0.12"/>
<stop offset="1" stop-color="#808080" stop-opacity="0.1"/>
</linearGradient>
<linearGradient id="paint6_linear" x1="997.969" y1="-1206.49" x2="910.793" y2="-1206.49" gradientUnits="userSpaceOnUse">
<stop stop-color="#808080" stop-opacity="0.25"/>
<stop offset="0.54" stop-color="#808080" stop-opacity="0.12"/>
<stop offset="1" stop-color="#808080" stop-opacity="0.1"/>
</linearGradient>
<linearGradient id="paint7_linear" x1="1060.02" y1="-1154.73" x2="972.845" y2="-1154.73" gradientUnits="userSpaceOnUse">
<stop stop-color="#808080" stop-opacity="0.25"/>
<stop offset="0.54" stop-color="#808080" stop-opacity="0.12"/>
<stop offset="1" stop-color="#808080" stop-opacity="0.1"/>
</linearGradient>
<linearGradient id="paint8_linear" x1="1115.66" y1="-1306.43" x2="1028.46" y2="-1306.43" gradientUnits="userSpaceOnUse">
<stop stop-color="#808080" stop-opacity="0.25"/>
<stop offset="0.54" stop-color="#808080" stop-opacity="0.12"/>
<stop offset="1" stop-color="#808080" stop-opacity="0.1"/>
</linearGradient>
</defs>
</svg>
